<svg xmlns="http://www.w3.org/2000/svg" xmlns:xlink="http://www.w3.org/1999/xlink" viewBox="0 0 500 500"><defs><clipPath id="freepik--clip-path--inject-5"><path d="M153.94,286.51S88.65,306.29,88.65,310s-1.87,76.86-.38,81,13.81,8.2,20.53,8.2v1.5H252.07L245,361.14s40.3-1.5,41-4.48S250.65,294,247.29,292.12s-54.54-7.47-60.51-7.47S168.12,282,153.94,286.51Z" style="fill:#1C7ED6;stroke:#263238;stroke-linecap:round;stroke-linejoin:round;stroke-width:1.177485466003418px"></path></clipPath><clipPath id="freepik--clip-path-2--inject-5"><path d="M148.72,287.26s5.22,13.06,10.82,24.25,19,26.87,22.39,23.51,6.71-29.48,6.71-35.45V281.66s-10.44,8.58-18.65,8.58S148.72,287.26,148.72,287.26Z" style="fill:#fff;stroke:#263238;stroke-linecap:round;stroke-linejoin:round;stroke-width:1.177485466003418px"></path></clipPath><clipPath id="freepik--clip-path-3--inject-5"><path d="M129.32,262.26s-9.33,16.79-7.84,19.4,16.42,18.66,16.42,18.66-42.54,63.43-46.64,69.77-4.85,15.67-3,20.9,13.06,10.07,20.9,9.7,13.8-10.08,16-19S147.6,307,149.47,301.81s4.47-9.33,1.86-11.94-12.68-12.31-12.68-12.31,3-2.61,2.61-5.6S134.54,263,129.32,262.26Z" style="fill:#fff;stroke:#263238;stroke-linecap:round;stroke-linejoin:round;stroke-width:1.177485466003418px"></path></clipPath><clipPath id="freepik--clip-path-4--inject-5"><path d="M193.87,333.15s-29.48,24.26-33.58,26.49-2.24,6.35-.75,7.84,11.19,10.45,15.67,13.43,10.82-2.24,12.31-3-.37-4.11-.37-4.11,11.57-6.34,13.43-12.31a67.4,67.4,0,0,0,2.24-14.18s47,19,58.21,23.13,18.28,4.48,23.51-.74,5.59-16.05,3-21.64-19-10.82-26.49-10.82-60.45-6.35-63.8-5.23Z" style="fill:#fff;stroke:#263238;stroke-linecap:round;stroke-linejoin:round;stroke-width:1.177485466003418px"></path></clipPath></defs><g id="freepik--Clock--inject-5"><circle cx="264.91" cy="175.91" r="44.08" transform="matrix(1, -0.1, 0.1, 1, -15.94, 26.76)" style="fill:none;stroke:#263238;stroke-linecap:round;stroke-linejoin:round;stroke-width:1.177485466003418px"></circle><circle cx="264.91" cy="175.91" r="36.53" transform="translate(-24.55 44.26) rotate(-9.13)" style="fill:none;stroke:#263238;stroke-linecap:round;stroke-linejoin:round;stroke-width:1.177485466003418px"></circle><polyline points="241.61 175.91 264.91 175.91 264.91 209.53" style="fill:none;stroke:#263238;stroke-linecap:round;stroke-linejoin:round;stroke-width:1.177485466003418px"></polyline></g><g id="freepik--Device--inject-5"><path d="M382,366l16.6,26.74a5.12,5.12,0,0,1-4.35,7.82h-33.9a5.12,5.12,0,0,0,4.35-7.8l-16.06-26.16Z" style="fill:#fff;stroke:#263238;stroke-linecap:round;stroke-linejoin:round;stroke-width:1.177485466003418px"></path><polygon points="382.01 365.98 348.65 366.58 354.83 376.64 388.62 376.64 382.01 365.98" style="fill:#263238;stroke:#263238;stroke-linecap:round;stroke-linejoin:round;stroke-width:1.177485466003418px"></polygon><rect x="290.27" y="252.2" width="141.78" height="119.74" rx="2.91" transform="translate(722.32 624.14) rotate(180)" style="fill:#fff;stroke:#263238;stroke-linecap:round;stroke-linejoin:round;stroke-width:1.177485466003418px"></rect><rect x="284.91" y="252.2" width="141.78" height="119.74" rx="2.91" transform="translate(711.6 624.14) rotate(180)" style="fill:#fff;stroke:#263238;stroke-linecap:round;stroke-linejoin:round;stroke-width:1.177485466003418px"></rect><path d="M289.67,252.2H421.92a4.76,4.76,0,0,1,4.77,4.76v93.53H284.91V257A4.76,4.76,0,0,1,289.67,252.2Z" style="fill:#263238;stroke:#263238;stroke-linecap:round;stroke-linejoin:round;stroke-width:1.177485466003418px"></path><rect x="290.86" y="256.96" width="129.87" height="86.98" transform="translate(711.6 600.91) rotate(180)" style="fill:#fff;stroke:#263238;stroke-linecap:round;stroke-linejoin:round;stroke-width:1.177485466003418px"></rect><rect x="248.42" y="394.55" width="4.12" height="1.37" style="fill:#fff;stroke:#263238;stroke-linecap:round;stroke-linejoin:round;stroke-width:1.177485466003418px"></rect><rect x="253.92" y="394.55" width="4.12" height="1.37" style="fill:#fff;stroke:#263238;stroke-linecap:round;stroke-linejoin:round;stroke-width:1.177485466003418px"></rect><rect x="259.42" y="394.55" width="4.12" height="1.37" style="fill:#fff;stroke:#263238;stroke-linecap:round;stroke-linejoin:round;stroke-width:1.177485466003418px"></rect><rect x="264.92" y="394.55" width="4.12" height="1.37" style="fill:#fff;stroke:#263238;stroke-linecap:round;stroke-linejoin:round;stroke-width:1.177485466003418px"></rect><rect x="270.42" y="394.55" width="4.12" height="1.37" style="fill:#fff;stroke:#263238;stroke-linecap:round;stroke-linejoin:round;stroke-width:1.177485466003418px"></rect><rect x="275.92" y="394.55" width="4.12" height="1.37" style="fill:#fff;stroke:#263238;stroke-linecap:round;stroke-linejoin:round;stroke-width:1.177485466003418px"></rect><rect x="281.42" y="394.55" width="4.12" height="1.37" style="fill:#fff;stroke:#263238;stroke-linecap:round;stroke-linejoin:round;stroke-width:1.177485466003418px"></rect><rect x="286.92" y="394.55" width="4.12" height="1.37" style="fill:#fff;stroke:#263238;stroke-linecap:round;stroke-linejoin:round;stroke-width:1.177485466003418px"></rect><rect x="292.42" y="394.55" width="4.12" height="1.37" style="fill:#fff;stroke:#263238;stroke-linecap:round;stroke-linejoin:round;stroke-width:1.177485466003418px"></rect><rect x="297.92" y="394.55" width="4.12" height="1.37" style="fill:#fff;stroke:#263238;stroke-linecap:round;stroke-linejoin:round;stroke-width:1.177485466003418px"></rect><rect x="303.42" y="394.55" width="4.12" height="1.37" style="fill:#fff;stroke:#263238;stroke-linecap:round;stroke-linejoin:round;stroke-width:1.177485466003418px"></rect><rect x="308.92" y="394.55" width="4.12" height="1.37" style="fill:#fff;stroke:#263238;stroke-linecap:round;stroke-linejoin:round;stroke-width:1.177485466003418px"></rect><rect x="314.42" y="394.55" width="4.12" height="1.37" style="fill:#fff;stroke:#263238;stroke-linecap:round;stroke-linejoin:round;stroke-width:1.177485466003418px"></rect><rect x="319.91" y="394.55" width="4.12" height="1.37" style="fill:#fff;stroke:#263238;stroke-linecap:round;stroke-linejoin:round;stroke-width:1.177485466003418px"></rect><rect x="325.41" y="394.55" width="4.12" height="1.37" style="fill:#fff;stroke:#263238;stroke-linecap:round;stroke-linejoin:round;stroke-width:1.177485466003418px"></rect><rect x="330.91" y="394.55" width="4.12" height="1.37" style="fill:#fff;stroke:#263238;stroke-linecap:round;stroke-linejoin:round;stroke-width:1.177485466003418px"></rect><rect x="336.41" y="394.55" width="4.12" height="1.37" style="fill:#fff;stroke:#263238;stroke-linecap:round;stroke-linejoin:round;stroke-width:1.177485466003418px"></rect><rect x="341.91" y="394.55" width="4.12" height="1.37" style="fill:#fff;stroke:#263238;stroke-linecap:round;stroke-linejoin:round;stroke-width:1.177485466003418px"></rect><rect x="347.41" y="394.55" width="4.12" height="1.37" style="fill:#fff;stroke:#263238;stroke-linecap:round;stroke-linejoin:round;stroke-width:1.177485466003418px"></rect><rect x="352.91" y="394.55" width="4.12" height="1.37" style="fill:#fff;stroke:#263238;stroke-linecap:round;stroke-linejoin:round;stroke-width:1.177485466003418px"></rect><rect x="358.41" y="394.55" width="4.12" height="1.37" style="fill:#fff;stroke:#263238;stroke-linecap:round;stroke-linejoin:round;stroke-width:1.177485466003418px"></rect><rect x="246.29" y="396.12" width="119.25" height="4.45" style="fill:#fff;stroke:#263238;stroke-linecap:round;stroke-linejoin:round;stroke-width:1.177485466003418px"></rect><rect x="336.45" y="396.12" width="29.09" height="4.45" style="fill:#263238;stroke:#263238;stroke-linecap:round;stroke-linejoin:round;stroke-width:1.177485466003418px"></rect></g><g id="freepik--Text--inject-5"><path d="M286.71,413.33v1.34h-.64V413.3c0-2.48-.93-4.55-3.61-4.55s-3.65,2.07-3.65,4.55v10.43c0,2.48.94,4.52,3.65,4.52s3.61-2,3.61-4.52V419.1h-3.18v-.59h3.82v5.19c0,2.83-1.16,5.16-4.28,5.16s-4.26-2.33-4.26-5.16V413.33c0-2.83,1.17-5.16,4.26-5.16S286.71,410.5,286.71,413.33Z" style="fill:#263238"></path><path d="M290.67,423.9l-1.19,4.81h-.58l4.92-20.43h.9l5,20.43h-.64l-1.19-4.81Zm.12-.58h7L294.26,409Z" style="fill:#263238"></path><path d="M304.72,428.71V408.93h-4.43v-.62h9.53v.62h-4.46v19.78Z" style="fill:#263238"></path><path d="M318.24,418.08v.58h-6v9.44h7.14v.61h-7.79v-20.4h7.79v.62h-7.14v9.15Z" style="fill:#263238"></path><path d="M326.16,428.71h-.93l-3.67-20.4h.64l3.55,19.53,3.53-19.41h.79l3.32,19.29,3.44-19.41h.58l-3.61,20.4H333l-3.29-18.88Z" style="fill:#263238"></path><path d="M340.91,423.9l-1.2,4.81h-.58l4.93-20.43h.9l5,20.43h-.64l-1.2-4.81Zm.11-.58h7L344.49,409Z" style="fill:#263238"></path><path d="M355.45,420.47l-4.75-12.16h.64l4.46,11.28,4.46-11.28h.67l-4.84,12.16v8.24h-.64Z" style="fill:#263238"></path><path d="M371.45,428.71V408.93H367v-.62h9.54v.62h-4.46v19.78Z" style="fill:#263238"></path><path d="M379,408.31v20.4h-.64v-20.4Z" style="fill:#263238"></path><path d="M387.65,428.65h-.73l-5.05-19.37v19.43h-.58v-20.4h1l5,19.35,5-19.35h1v20.4h-.64V409.28Z" style="fill:#263238"></path><path d="M402.27,418.08v.58h-6v9.44h7.14v.61h-7.78v-20.4h7.78v.62h-7.14v9.15Z" style="fill:#263238"></path><path d="M405.65,413.33c0-2.86,1.23-5.16,4.32-5.16s4.37,2.3,4.37,5.16V423.7c0,2.86-1.23,5.16-4.37,5.16s-4.32-2.3-4.32-5.16Zm.64,10.4c0,2.51,1,4.55,3.68,4.55s3.73-2,3.73-4.55V413.3c0-2.51-1-4.55-3.73-4.55s-3.68,2-3.68,4.55Z" style="fill:#263238"></path><path d="M417.25,423.7c0,2.45.87,4.58,3.58,4.58s3.59-2.13,3.59-4.58V408.31H425v15.36c0,2.8-1.11,5.19-4.2,5.19s-4.22-2.39-4.22-5.19V408.31h.64Z" style="fill:#263238"></path><path d="M431.15,428.71V408.93h-4.43v-.62h9.53v.62h-4.46v19.78Z" style="fill:#263238"></path><path d="M316.53,313.06v5.66c0,4.35,1.92,5.92,5,5.92s5-1.57,5-5.92v-13.4c0-4.35-1.91-6-5-6s-5,1.65-5,6v1.83h-9l1.74-35.33h25.23v8.7H317.84l-.78,14.53a9.12,9.12,0,0,1,8.35-4.43c7,0,10.62,4.95,10.62,13.92v13.57c0,9.75-4.88,15.32-14.27,15.32s-14.27-5.57-14.27-15.32v-5.05Z" style="fill:#263238"></path><path d="M341.59,286.44c0-9.75,5.14-15.32,14.53-15.32s14.53,5.57,14.53,15.32v31.67c0,9.75-5.13,15.32-14.53,15.32s-14.53-5.57-14.53-15.32Zm9.57,32.28c0,4.35,1.92,6,5,6s5-1.65,5-6V285.83c0-4.35-1.91-6-5-6s-5,1.65-5,6Z" style="fill:#263238"></path><path d="M374.57,313,392,271.82h10.44V313h4.53v8.7h-4.53v11.05H393V321.68H374.57ZM393,313V290.09L383.35,313Z" style="fill:#263238"></path><path d="M337.88,236.42V237h-6v9.44H339v.62h-7.78v-20.4H339v.61h-7.14v9.15Z" style="fill:#263238"></path><path d="M345.34,226.66c3,0,4.19,1.77,4.19,4.57v1.84c0,2.5-1,3.87-3.23,4.28,2.27.35,3.23,1.84,3.23,4.08v3.21a4.31,4.31,0,0,0,.56,2.42h-.7a4.64,4.64,0,0,1-.5-2.42v-3.21c0-3-1.81-3.79-4.46-3.79h-2.5v9.42h-.64v-20.4ZM344.43,237c2.83,0,4.46-.73,4.46-3.87v-1.87c0-2.48-1-4-3.58-4h-3.38V237Z" style="fill:#263238"></path><path d="M356.41,226.66c3,0,4.19,1.77,4.19,4.57v1.84c0,2.5-1,3.87-3.23,4.28,2.27.35,3.23,1.84,3.23,4.08v3.21a4.31,4.31,0,0,0,.56,2.42h-.7a4.64,4.64,0,0,1-.5-2.42v-3.21c0-3-1.8-3.79-4.45-3.79H353v9.42h-.64v-20.4Zm-.9,10.37c2.82,0,4.45-.73,4.45-3.87v-1.87c0-2.48-1-4-3.58-4H353V237Z" style="fill:#263238"></path><path d="M363.4,231.67c0-2.86,1.23-5.16,4.31-5.16s4.38,2.3,4.38,5.16V242c0,2.86-1.23,5.16-4.38,5.16s-4.31-2.3-4.31-5.16Zm.64,10.4c0,2.51,1,4.55,3.67,4.55s3.73-2,3.73-4.55V231.64c0-2.51-1-4.55-3.73-4.55s-3.67,2-3.67,4.55Z" style="fill:#263238"></path><path d="M378.44,226.66c3,0,4.19,1.77,4.19,4.57v1.84c0,2.5-1,3.87-3.23,4.28,2.27.35,3.23,1.84,3.23,4.08v3.21a4.31,4.31,0,0,0,.56,2.42h-.7a4.64,4.64,0,0,1-.5-2.42v-3.21c0-3-1.8-3.79-4.46-3.79H375v9.42h-.64v-20.4ZM377.53,237c2.83,0,4.46-.73,4.46-3.87v-1.87c0-2.48-1-4-3.58-4H375V237Z" style="fill:#263238"></path></g><g id="freepik--Character--inject-5"><path d="M192.55,247.65s5.11-8.83,7-5.11,1.4,11.61-1.39,15.33-3.72,5.57-5.11,2.78S192.55,247.65,192.55,247.65Z" style="fill:#fff;stroke:#263238;stroke-linecap:round;stroke-linejoin:round;stroke-width:1.177485466003418px"></path><path d="M131.7,254.61s-6-7.43-7.44-2.32,5.58,11.61,7.44,12.54a9,9,0,0,0,4.64.47Z" style="fill:#fff;stroke:#263238;stroke-linecap:round;stroke-linejoin:round;stroke-width:1.177485466003418px"></path><path d="M153.94,286.51S88.65,306.29,88.65,310s-1.87,76.86-.38,81,13.81,8.2,20.53,8.2v1.5H252.07L245,361.14s40.3-1.5,41-4.48S250.65,294,247.29,292.12s-54.54-7.47-60.51-7.47S168.12,282,153.94,286.51Z" style="fill:#1C7ED6"></path><g style="clip-path:url(#freepik--clip-path--inject-5)"><path d="M212.33,400.69c-90.47-33.25-86.43-50.19-86.43-50.19l-30,45.85a39,39,0,0,0,12.92,2.84v1.5Z" style="opacity:0.30000000000000004"></path><path d="M188.93,304.44s30.71-1.62,50.91-16.16L183.28,281Z" style="opacity:0.30000000000000004"></path></g><path d="M153.94,286.51S88.65,306.29,88.65,310s-1.87,76.86-.38,81,13.81,8.2,20.53,8.2v1.5H252.07L245,361.14s40.3-1.5,41-4.48S250.65,294,247.29,292.12s-54.54-7.47-60.51-7.47S168.12,282,153.94,286.51Z" style="fill:none;stroke:#263238;stroke-linecap:round;stroke-linejoin:round;stroke-width:1.177485466003418px"></path><line x1="243.72" y1="342.76" x2="233.02" y2="310.67" style="fill:none;stroke:#263238;stroke-linecap:round;stroke-linejoin:round;stroke-width:1.177485466003418px"></line><path d="M101.08,311.38s17.83,10,23.54,33.52" style="fill:none;stroke:#263238;stroke-linecap:round;stroke-linejoin:round;stroke-width:1.177485466003418px"></path><path d="M101,355.91s-11.94,7.84-14.55,9.7-3.36,21.65-.75,27.24,13.81,8.21,21.27,4.48,10.82-21.27,8.21-30.22S101,355.91,101,355.91Z" style="fill:#263238;stroke:#263238;stroke-linecap:round;stroke-linejoin:round;stroke-width:1.177485466003418px"></path><path d="M144.62,290.24s1.12,17.91,4.47,29.85,9.7,27.61,9.7,27.61l21.27-16.79L208.79,338s-5.59-29.47-9.7-39.17-12.31-17.54-12.31-17.54S155.44,277.18,144.62,290.24Z" style="fill:#263238;stroke:#263238;stroke-linecap:round;stroke-linejoin:round;stroke-width:1.177485466003418px"></path><path d="M148.72,287.26s5.22,13.06,10.82,24.25,19,26.87,22.39,23.51,6.71-29.48,6.71-35.45V281.66s-10.44,8.58-18.65,8.58S148.72,287.26,148.72,287.26Z" style="fill:#fff"></path><g style="clip-path:url(#freepik--clip-path-2--inject-5)"><path d="M188.64,281.66s-10.44,8.58-18.65,8.58-21.27-3-21.27-3,2.65,6.63,6.2,14.49a31.19,31.19,0,0,0,21.83,4.9c4.68-.74,8.6-3.29,11.89-6.81V281.66Z" style="fill:#1C7ED6"></path><path d="M188.64,281.66s-10.44,8.58-18.65,8.58-21.27-3-21.27-3,2.65,6.63,6.2,14.49a31.19,31.19,0,0,0,21.83,4.9c4.68-.74,8.6-3.29,11.89-6.81V281.66Z" style="fill:#fff;opacity:0.7000000000000001"></path></g><path d="M148.72,287.26s5.22,13.06,10.82,24.25,19,26.87,22.39,23.51,6.71-29.48,6.71-35.45V281.66s-10.44,8.58-18.65,8.58S148.72,287.26,148.72,287.26Z" style="fill:none;stroke:#263238;stroke-linecap:round;stroke-linejoin:round;stroke-width:1.177485466003418px"></path><path d="M130.3,250.9s7.9,26,13,33,19.05,13.94,29.27,13.47,18.58-10.68,20.44-20.9.46-33.45.46-33.45-1.85-10.22-9.75-23.69-47.85-2.33-52,7.89S130.3,250.9,130.3,250.9Z" style="fill:#fff;stroke:#263238;stroke-linecap:round;stroke-linejoin:round;stroke-width:1.177485466003418px"></path><path d="M161.89,271.34s4.65,6.5,10.22-.47" style="fill:none;stroke:#263238;stroke-linecap:round;stroke-linejoin:round;stroke-width:1.177485466003418px"></path><path d="M147.49,261.12s4.18-3.72,9.76,0" style="fill:none;stroke:#263238;stroke-linecap:round;stroke-linejoin:round;stroke-width:1.177485466003418px"></path><path d="M173.51,258.33s1.86-3.72,8.82-3.72" style="fill:none;stroke:#263238;stroke-linecap:round;stroke-linejoin:round;stroke-width:1.177485466003418px"></path><path d="M145.17,253.68s2.79-4.64,12.08-5.57" style="fill:none;stroke:#263238;stroke-linecap:round;stroke-linejoin:round;stroke-width:2.354970932006836px"></path><path d="M171.14,252.26s4.52-9.39,12.59-6.47" style="fill:none;stroke:#263238;stroke-linecap:round;stroke-linejoin:round;stroke-width:2.354970932006836px"></path><path d="M172.58,282A2.57,2.57,0,1,1,170,279.7,2.45,2.45,0,0,1,172.58,282Z" style="fill:#263238"></path><path d="M157.53,262.51a1.41,1.41,0,1,1-1.41-1.4A1.41,1.41,0,0,1,157.53,262.51Z" style="fill:#263238"></path><path d="M182,257.26a1.41,1.41,0,1,1-1.4-1.41A1.4,1.4,0,0,1,182,257.26Z" style="fill:#263238"></path><path d="M152.14,194.69H135.88c-9.29,0-21.37,24.62-20.91,36.23s10.69,19.05,13.48,20.44,7.89,3.72,7.89,2.32,5.58-12.54,5.58-12.54-1.4,6.51,2.32,6.51,15.33-12.08,15.33-12.08.47,9.75,4.18,9.75,11.62-14.4,11.62-14.4l8.36,9.29,2.79-5.57s3.25,13,6,13,5.11-6.51,6.51-13,4.18-17.19-.47-26.95-18.11-18.58-29.26-18.58S152.14,194.69,152.14,194.69Z" style="fill:#263238;stroke:#263238;stroke-linecap:round;stroke-linejoin:round;stroke-width:1.177485466003418px"></path><path d="M146.39,198.4s-11.44,1.32-16.72,4.84a19.32,19.32,0,0,0-7,7.92l11.44-5.28s-7.48,5.72-8.36,8.36A72.24,72.24,0,0,0,124,222.6l7-2.2s-2.91,2.44-2.64,4.84,1.32,7.92,1.32,7.92l8.36-7.92,2.2,5.72,7-5.72.44,4.4,4.84-6.6,4,4,2.64-4.84s2.2,2.2,3.08-3.08,1.32-7.48,1.32-7.48l4.84,5.72,1.76,7.48,1.32-7.92,4,3.52,1.32-6.6,4.84,2.64,1.76-6.16,10.56,3.52s-3.08-11-5.72-14.08-15.4-4.4-15.4-4.4l-1.32-2.2s-15,3.08-16.72,4a20,20,0,0,0-4,3.08" style="fill:none;stroke:#6b6b6b;stroke-linecap:round;stroke-linejoin:round;stroke-width:1.177485466003418px"></path><path d="M118.87,277.93a10.17,10.17,0,0,1-2.61-6.72c0-4.1,4.48-13,5.6-13s3.35,2.23,3.35,2.23-1.86,9-2.61,12.32A9.1,9.1,0,0,1,118.87,277.93Z" style="fill:#fff;stroke:#263238;stroke-linecap:round;stroke-linejoin:round;stroke-width:1.177485466003418px"></path><path d="M121.48,281.66s-3.73-4.48-3.73-6.34,6-14.93,7.46-14.93,6,1.87,7.09,2.62.75,4.47.75,7.09-6.72,14.17-6.72,14.17Z" style="fill:#fff;stroke:#263238;stroke-linecap:round;stroke-linejoin:round;stroke-width:1.177485466003418px"></path><path d="M129.32,262.26s-9.33,16.79-7.84,19.4,16.42,18.66,16.42,18.66-42.54,63.43-46.64,69.77-4.85,15.67-3,20.9,13.06,10.07,20.9,9.7,13.8-10.08,16-19S147.6,307,149.47,301.81s4.47-9.33,1.86-11.94-12.68-12.31-12.68-12.31,3-2.61,2.61-5.6S134.54,263,129.32,262.26Z" style="fill:#fff"></path><g style="clip-path:url(#freepik--clip-path-3--inject-5)"><path d="M125.21,381.66c2.24-9,22.39-74.63,24.26-79.85s4.47-9.33,1.86-11.94c-2.35-2.35-10.74-10.44-12.38-12h-.06c1.46,1.91,9.18,12.25,8.38,18.23-.88,6.6-34.76,86.25-39.16,91.53-3.37,4-12.38,6.52-16.44,7.47a29.74,29.74,0,0,0,17.5,5.6C117,400.31,123,390.61,125.21,381.66Z" style="fill:#1C7ED6"></path><path d="M125.21,381.66c2.24-9,22.39-74.63,24.26-79.85s4.47-9.33,1.86-11.94c-2.35-2.35-10.74-10.44-12.38-12h-.06c1.46,1.91,9.18,12.25,8.38,18.23-.88,6.6-34.76,86.25-39.16,91.53-3.37,4-12.38,6.52-16.44,7.47a29.74,29.74,0,0,0,17.5,5.6C117,400.31,123,390.61,125.21,381.66Z" style="fill:#fff;opacity:0.7000000000000001"></path></g><path d="M129.32,262.26s-9.33,16.79-7.84,19.4,16.42,18.66,16.42,18.66-42.54,63.43-46.64,69.77-4.85,15.67-3,20.9,13.06,10.07,20.9,9.7,13.8-10.08,16-19S147.6,307,149.47,301.81s4.47-9.33,1.86-11.94-12.68-12.31-12.68-12.31,3-2.61,2.61-5.6S134.54,263,129.32,262.26Z" style="fill:none;stroke:#263238;stroke-linecap:round;stroke-linejoin:round;stroke-width:1.177485466003418px"></path><path d="M134.91,270.47,133.05,275l5.6,2.61.24.3" style="fill:none;stroke:#263238;stroke-linecap:round;stroke-linejoin:round;stroke-width:1.177485466003418px"></path><path d="M246.1,339.5s3.36-5.6,7.47-7.09,20.15-3,26.49-.75,10.07,10.45,11.19,14.92.75,10.83-3,14.18-8.58,2.62-13.81,1.12-15.67-7.46-21.27-10.82S246.48,341.73,246.1,339.5Z" style="fill:#263238;stroke:#263238;stroke-linecap:round;stroke-linejoin:round;stroke-width:1.177485466003418px"></path><path d="M193.87,333.15s-29.48,24.26-33.58,26.49-2.24,6.35-.75,7.84,11.19,10.45,15.67,13.43,10.82-2.24,12.31-3-.37-4.11-.37-4.11,11.57-6.34,13.43-12.31a67.4,67.4,0,0,0,2.24-14.18s47,19,58.21,23.13,18.28,4.48,23.51-.74,5.59-16.05,3-21.64-19-10.82-26.49-10.82-60.45-6.35-63.8-5.23Z" style="fill:#fff"></path><g style="clip-path:url(#freepik--clip-path-4--inject-5)"><path d="M284.54,369.72a15.59,15.59,0,0,0,3.78-7.13c-19.63-1.21-77.21-23-83-23.38-6.6-.44-7.48,9.68-14.09,18S180.71,367.81,175,368.69c-3.9.6-4.52,5.5-4.53,8.56,1.8,1.49,3.49,2.82,4.75,3.66,4.48,3,10.82-2.24,12.31-3s-.37-4.11-.37-4.11,11.57-6.34,13.43-12.31a67.4,67.4,0,0,0,2.24-14.18s47,19,58.21,23.13S279.31,374.94,284.54,369.72Z" style="fill:#1C7ED6"></path><path d="M284.54,369.72a15.59,15.59,0,0,0,3.78-7.13c-19.63-1.21-77.21-23-83-23.38-6.6-.44-7.48,9.68-14.09,18S180.71,367.81,175,368.69c-3.9.6-4.52,5.5-4.53,8.56,1.8,1.49,3.49,2.82,4.75,3.66,4.48,3,10.82-2.24,12.31-3s-.37-4.11-.37-4.11,11.57-6.34,13.43-12.31a67.4,67.4,0,0,0,2.24-14.18s47,19,58.21,23.13S279.31,374.94,284.54,369.72Z" style="fill:#fff;opacity:0.7000000000000001"></path></g><path d="M193.87,333.15s-29.48,24.26-33.58,26.49-2.24,6.35-.75,7.84,11.19,10.45,15.67,13.43,10.82-2.24,12.31-3-.37-4.11-.37-4.11,11.57-6.34,13.43-12.31a67.4,67.4,0,0,0,2.24-14.18s47,19,58.21,23.13,18.28,4.48,23.51-.74,5.59-16.05,3-21.64-19-10.82-26.49-10.82-60.45-6.35-63.8-5.23Z" style="fill:none;stroke:#263238;stroke-linecap:round;stroke-linejoin:round;stroke-width:1.177485466003418px"></path><line x1="187.15" y1="373.82" x2="182.3" y2="376.06" style="fill:#fff;stroke:#263238;stroke-linecap:round;stroke-linejoin:round;stroke-width:1.177485466003418px"></line><polygon points="200.96 340.99 202.82 347.33 208.05 349.94 205.06 337.63 200.96 340.99" style="fill:#263238;stroke:#263238;stroke-linecap:round;stroke-linejoin:round;stroke-width:1.177485466003418px"></polygon><ellipse cx="200.4" cy="335.58" rx="8.77" ry="6.9" style="fill:#fff;stroke:#263238;stroke-linecap:round;stroke-linejoin:round;stroke-width:1.177485466003418px"></ellipse><line x1="40.61" y1="400.66" x2="443.33" y2="400.66" style="fill:none;stroke:#263238;stroke-linecap:round;stroke-linejoin:round;stroke-width:1.177485466003418px"></line></g></svg>